HIERARCHY
ROOT Hips
{
  OFFSET 90.7885 88.945 -76.2838
  CHANNELS 6 Xposition Yposition Zposition Zrotation Xrotation Yrotation
  JOINT LeftUpLeg
  {
    OFFSET 8.64259 1.95398 -2.38835
    CHANNELS 3 Zrotation Xrotation Yrotation
    JOINT LeftLeg
    {
      OFFSET 43.7702 0 0
      CHANNELS 3 Zrotation Xrotation Yrotation
      JOINT LeftFoot
      {
        OFFSET 40.6238 0 0
        CHANNELS 3 Zrotation Xrotation Yrotation
        JOINT LeftToeBase
        {
          OFFSET 12.7242 0 0
          CHANNELS 3 Zrotation Xrotation Yrotation
          End Site
          {
            OFFSET 0 0 0
          }
        }
      }
    }
  }
  JOINT RightUpLeg
  {
    OFFSET -8.2249 1.95398 -2.59336
    CHANNELS 3 Zrotation Xrotation Yrotation
    JOINT RightLeg
    {
      OFFSET 43.5653 0 0
      CHANNELS 3 Zrotation Xrotation Yrotation
      JOINT RightFoot
      {
        OFFSET 40.6238 0 0
        CHANNELS 3 Zrotation Xrotation Yrotation
        JOINT RightToeBase
        {
          OFFSET 12.7242 0 0
          CHANNELS 3 Zrotation Xrotation Yrotation
          End Site
          {
            OFFSET 0 0 0
          }
        }
      }
    }
  }
  JOINT Spine
  {
    OFFSET 0.165834 0.87714 6.61349
    CHANNELS 3 Zrotation Xrotation Yrotation
    JOINT Spine1
    {
      OFFSET 7.38963 1.71661e-005 0
      CHANNELS 3 Zrotation Xrotation Yrotation
      JOINT Spine2
      {
        OFFSET 11.9445 1.14441e-005 0
        CHANNELS 3 Zrotation Xrotation Yrotation
        JOINT Spine3
        {
          OFFSET 14.7254 4.19617e-005 0
          CHANNELS 3 Zrotation Xrotation Yrotation
          JOINT Spine4
          {
            OFFSET 10.9679 0 0
            CHANNELS 3 Zrotation Xrotation Yrotation
            JOINT RightShoulder
            {
              OFFSET 2.46616 -1.6653 3.69651
              CHANNELS 3 Zrotation Xrotation Yrotation
              JOINT RightArm
              {
                OFFSET 13.0012 0 0
                CHANNELS 3 Zrotation Xrotation Yrotation
                JOINT RightForeArm
                {
                  OFFSET 28.7848 1.52588e-005 0
                  CHANNELS 3 Zrotation Xrotation Yrotation
                  JOINT RightHand
                  {
                    OFFSET 26.5688 1.52588e-005 0
                    CHANNELS 3 Zrotation Xrotation Yrotation
                    End Site
                    {
                      OFFSET 0 0 0
                    }
                  }
                }
              }
            }
            JOINT LeftShoulder
            {
              OFFSET 2.38034 -1.29275 -3.7523
              CHANNELS 3 Zrotation Xrotation Yrotation
              JOINT LeftArm
              {
                OFFSET 16.3182 6.10352e-005 0
                CHANNELS 3 Zrotation Xrotation Yrotation
                JOINT LeftForeArm
                {
                  OFFSET 27.0901 0 0
                  CHANNELS 3 Zrotation Xrotation Yrotation
                  JOINT LeftHand
                  {
                    OFFSET 24.5451 1.52588e-005 0
                    CHANNELS 3 Zrotation Xrotation Yrotation
                    End Site
                    {
                      OFFSET 0 0 0
                    }
                  }
                }
              }
            }
            JOINT Neck
            {
              OFFSET 5.0226 -0.0266342 0
              CHANNELS 3 Zrotation Xrotation Yrotation
              JOINT Head
              {
                OFFSET 6.69363 2.86102e-005 0
                CHANNELS 3 Zrotation Xrotation Yrotation
                End Site
                {
                  OFFSET 0 0 0
                }
              }
            }
          }
        }
      }
    }
  }
}
MOTION
Frames:	18
Frame Time:	0.0416667
36.517 100.695 -335.643 -176.056 -83.8006 -177.333 -175.888 -7.29258 92.5497 -6.66217 3.06565 -0.140869 69.6231 5.18502 1.16828 22.092 -11.5822 16.3955 170.305 -4.22409 88.4098 -13.6791 -9.25693 -0.322111 70.7906 -5.26764 -0.444803 23.9279 -1.05548 3.27424 0.195842 7.53303 -89.9469 11.8077 0.414505 0.0619399 0.136869 0.416837 0.0436285 -22.3987 0.376723 0.183645 -2.38608 0.376734 0.183656 91.2445 -31.9858 -103.615 41.4102 -16.3587 -8.288 -0.0608244 -23.8886 -14.6141 -15.3542 -0.688827 -8.70385 -88.5124 -53.9432 81.6762 -19.0463 23.4265 -15.9636 1.16677 3.37165 -7.58489 -1.17595 -0.096893 -4.97907 2.73284 -3.42298 -2.28053 -7.72823 -2.9655 -0.896312 
35.4964 100.409 -334.848 -171.03 -82.9411 -173.132 -175.166 -8.11961 92.6803 -7.55293 3.09549 -0.777052 70.9334 6.77436 4.44036 21.8907 -4.80409 7.45021 169.384 -4.47599 87.4303 -15.7061 -10.3302 0.0689916 72.7785 -5.79554 -0.0266769 23.0292 -1.13452 3.56748 0.244839 7.60857 -89.872 11.6566 0.5471 0.198224 -0.0142434 0.555293 0.173944 -22.55 0.462223 0.353486 -2.53735 0.462234 0.353487 89.3693 -31.6374 -107.367 41.2662 -17.1027 -6.89416 4.04096 -28.5571 -14.6308 -26.8214 -1.26881 -5.67702 -88.4574 -55.7608 82.0688 -18.4021 20.0717 -13.4263 2.48153 2.73919 -8.46565 -5.07153 0.0390233 -9.91534 1.35827 -3.00628 -1.03035 -7.05158 -2.77495 -1.01194 
34.2289 99.8463 -334.065 -175.25 -82.6413 -177.739 -173.418 -5.97412 93.8641 -12.8146 4.8711 -1.17645 71.9148 7.71836 3.86329 24.2069 -5.5593 8.35282 169.349 -4.14448 87.6743 -18.5879 -9.72181 0.257374 74.9127 -6.30695 -0.316149 21.7531 -0.975157 3.42421 0.302457 7.73641 -89.8101 11.4002 0.690494 0.307921 -0.270643 0.703371 0.277228 -22.8066 0.566019 0.501199 -2.79391 0.566027 0.501212 89.6011 -31.2778 -107.054 41.3428 -17.31 -7.05631 4.73133 -28.101 -14.3398 -26.6811 -1.15981 -6.20298 -87.969 -55.2331 82.6697 -18.5363 17.7421 -11.684 3.66705 1.38434 -10.071 -1.8495 -0.109702 -7.61062 2.20253 -2.7893 -0.255665 -7.47359 -2.66898 -1.05216 
33.3501 99.2901 -333.488 177.766 -82.8374 175.325 -173.242 2.09968 95.1665 -27.9383 3.7474 -0.420292 72.7734 7.01327 -1.21825 26.6529 -6.68739 9.9187 169.368 -3.73788 88.235 -20.2517 -8.72425 0.638228 76.7152 -6.83261 -0.599067 22.0074 -1.55823 4.56981 0.333012 7.7916 -89.8838 11.2903 0.716883 0.160275 -0.380453 0.723244 0.128564 -22.9168 0.635574 0.368333 -2.9042 0.635567 0.368322 89.0935 -31.1698 -108.08 40.3792 -16.7962 -6.25155 4.55703 -27.5016 -14.6823 -25.3249 -1.1706 -5.94508 -87.8562 -55.4475 82.8648 -18.4046 16.0381 -9.8334 4.29194 0.59179 -10.915 -2.02795 -0.100634 -7.71181 2.10813 -2.42687 0.840289 -7.14832 -2.47458 -1.25033 
32.8027 99.0321 -332.695 164.999 -83.1263 161.884 -174.685 10.1058 93.4081 -40.4107 4.78835 0.836823 71.3527 5.8347 -3.45782 24.7426 -6.02016 8.98085 169.324 -4.13432 88.2182 -19.7834 -6.76199 0.62948 78.0258 -7.07361 -0.200429 21.8426 -1.39756 4.25981 0.417979 7.80749 -89.8786 11.2585 0.88839 0.153778 -0.412136 0.894293 0.114524 -22.9493 0.801093 0.413685 -2.93664 0.801094 0.413675 89.3757 -30.2684 -107.887 40.9227 -15.9431 -5.89845 5.33657 -22.082 -14.4221 -24.9372 -0.493334 -8.0254 -87.71 -55.0664 83.0107 -18.7804 14.9768 -8.14368 4.55201 -0.390215 -11.1893 -1.3853 -0.11839 -7.60321 1.65566 -2.4741 1.18531 -6.83241 -2.55787 -1.69142 
33.0206 99.229 -331.34 158.545 -83.555 153.798 -176.246 15.2723 89.5989 -40.1716 4.87057 0.107015 70.3537 4.67182 -8.62865 25.1338 -9.03149 13.1966 168.511 -4.33986 86.4358 -19.2592 -7.19925 0.405622 78.0759 -7.1928 -0.336289 23.0535 -1.0601 3.41383 0.678522 7.86191 -89.8077 11.1492 1.43988 0.242241 -0.521006 1.44915 0.178615 -23.0615 1.3005 0.663852 -3.04882 1.3005 0.663855 89.1414 -30.0199 -108.448 39.2887 -16.7339 -7.41936 6.66914 -22.6485 -13.4708 -26.1062 -0.534903 -7.83632 -87.5863 -54.8965 83.1595 -19.8346 13.4563 -6.3101 5.31123 -0.0898391 -12.2764 -1.39366 -0.11614 -7.35828 1.80187 -3.04257 2.3055 -6.79546 -3.26545 -2.42484 
33.4772 98.9996 -329.056 146.394 -83.6726 140.511 -178.171 17.6585 85.366 -28.998 7.54731 -1.05568 67.2264 3.85936 -4.41475 23.0193 -6.47081 9.80867 167.984 -5.04665 85.1686 -19.0214 -5.96203 0.135447 79.3709 -7.58641 -0.0862727 23.7843 -1.21791 3.62495 0.81201 7.91057 -89.8021 11.0519 1.70821 0.229188 -0.617941 1.71664 0.153756 -23.1608 1.56034 0.732101 -3.14814 1.56034 0.732091 88.8432 -29.8456 -109.108 36.9506 -16.942 -10.7071 4.22118 -22.3125 -15.8807 -23.2721 -0.434541 -8.60823 -87.2725 -55.1152 83.6395 -21.3596 11.93 -3.58914 6.19291 0.935683 -13.2307 -1.88895 -0.102578 -7.31166 2.65882 -3.02424 3.96155 -6.30555 -3.52817 -2.67224 
33.9521 98.5178 -325.765 139.549 -83.6812 133.428 179.422 18.0412 82.6728 -14.2789 7.78392 -1.36846 65.5823 3.64644 -0.796207 17.5763 -0.636246 2.52237 167.43 -7.17816 84.5993 -18.1628 -5.41647 0.106459 80.8142 -8.42263 -0.354885 25.3075 -1.74784 4.58233 0.996749 7.96036 -89.9298 10.9551 2.01692 -0.0518577 -0.714283 2.0127 -0.140625 -23.2613 1.93923 0.55694 -3.24867 1.93923 0.556938 89.0192 -29.3811 -108.954 34.3403 -16.997 -14.0628 3.40416 -21.9721 -17.7211 -23.7804 -0.382396 -8.73055 -87.9398 -56.5273 82.9211 -21.6456 13.5398 -1.25303 5.09418 -0.17772 -12.1366 -2.04778 -0.0964372 -6.57104 2.90524 -2.99342 5.55264 -4.95303 -3.78334 -3.25906 
34.1824 97.56 -320.958 147.157 -84.2909 141.447 178.655 18.95 82.3275 -8.23708 4.42103 -2.46476 64.8995 3.48024 -2.17069 15.687 -1.36519 3.61948 167.951 -11.1169 84.9402 -16.9656 -4.49798 -0.890943 82.946 -9.39828 0.374219 26.1876 -1.46047 3.82634 1.1451 8.00742 -89.9899 10.8628 2.28468 -0.194124 -0.806223 2.27391 -0.294546 -23.357 2.23734 0.501842 -3.34438 2.23734 0.50184 88.2713 -29.8147 -110.247 32.2352 -16.4476 -16.9607 2.2629 -25.1906 -18.8899 -21.8342 -0.5775 -8.92046 -87.6917 -57.3686 83.3972 -22.9482 13.9393 1.25586 4.74634 0.49646 -10.4395 -2.07043 -0.0929039 -5.27111 3.20345 -2.72119 5.18231 -4.53053 -3.47707 -3.20915 
34.5902 96.2412 -314.254 -172.549 -85.5967 -177.914 179.525 19.5674 82.6456 -12.0953 0.458091 -2.28822 63.0098 2.82092 -2.37122 15.413 -1.07204 3.30611 167.188 -14.7248 83.5576 -17.2387 -8.48462 -1.71143 82.127 -9.21589 0.707945 30.6518 -0.228372 0.113208 1.42121 7.93318 -89.9159 11.0117 2.86822 -0.107066 -0.656074 2.86073 -0.233306 -23.2154 2.76769 0.76058 -3.20273 2.76769 0.760581 87.9889 -29.9012 -110.764 32.3405 -17.5119 -18.6461 2.46406 -27.0081 -18.6703 -21.8256 -0.577908 -9.69997 -87.5614 -58.9442 83.8122 -23.0516 13.7058 4.30372 4.27928 -0.905527 -9.58326 -3.4033 -0.0785239 -5.76481 3.88606 -2.15496 4.46543 -5.40106 -2.79607 -3.36934 
34.9466 96.4356 -306.255 -140.087 -83.5566 -145.182 -178.416 20.4852 82.8385 -23.9955 -1.56956 -3.19522 62.3475 1.61265 -1.56738 13.5432 -2.40625 5.01156 166.046 -17.2072 81.0977 -20.2447 -11.8661 -3.1549 76.2575 -7.32054 0.747468 39.0684 -1.26358 0.914412 1.53826 7.87309 -89.8427 11.1311 3.1349 0.00799705 -0.536086 3.13221 -0.130123 -23.0996 2.98742 0.95065 -3.08701 2.98743 0.950654 88.3639 -29.5678 -110.17 35.5118 -18.2763 -17.5706 3.30062 -27.1468 -16.7882 -25.162 -0.976768 -6.85356 -87.5397 -60.6783 84.0949 -21.5366 14.0379 3.79072 3.42145 -1.97641 -5.31212 -3.71341 -0.0721581 -5.90966 3.81873 -1.72876 4.03114 -6.06163 -2.29405 -3.01527 
35.5325 97.114 -297.719 -151.248 -83.0023 -156.361 -177.985 16.437 81.9409 -29.9077 0.623898 -3.59033 69.0177 3.96697 -1.52093 12.1271 -3.6954 6.54307 166.47 -11.858 79.491 -37.6411 -15.3339 -3.67007 62.9087 -1.80124 -0.503048 41.2471 -3.62341 7.83505 1.2035 7.82967 -89.8026 11.2151 2.4871 0.148394 -0.453497 2.49122 0.0387052 -23.0059 2.32745 0.8894 -2.9932 2.32745 0.889402 88.4899 -29.8643 -109.796 38.4661 -18.2807 -12.3673 3.90695 -26.1067 -16.2095 -25.2129 -0.81726 -7.44469 -87.8662 -59.025 83.4098 -21.516 15.308 -0.301006 2.73268 -2.9204 -2.80991 -2.92771 -0.0819408 -5.94615 2.63964 -1.70711 2.38774 -6.17073 -2.00746 -1.80175 
35.8441 97.2948 -291.138 -158.182 -82.0624 -163.171 -178.187 11.5069 81.6235 -31.8259 0.995185 -3.73102 74.5671 5.79112 -1.07104 13.0813 -4.04665 6.88492 170.498 0.662869 79.4851 -60.187 -18.1062 -4.07403 55.5295 1.25225 0.681018 24.3814 -2.23463 5.72335 0.809959 7.93453 -89.8113 11.0042 1.69987 0.212916 -0.665694 1.7076 0.137866 -23.2085 1.55728 0.71408 -3.19586 1.55728 0.714061 88.1686 -30.7049 -110.066 38.3503 -17.0863 -7.6437 3.74016 -26.6234 -16.2263 -25.5889 -0.760856 -7.89957 -88.0238 -57.2011 82.9107 -19.4397 16.0573 -8.00325 2.83654 -2.15744 -4.42571 -1.53221 -0.103125 -6.0879 2.01955 -1.28458 1.09747 -5.26195 -1.40308 -1.32428 
35.9349 98.2072 -285.204 -163.232 -82.407 -166.451 -179.246 6.47966 82.0692 -29.6004 2.02158 -1.87858 76.2738 6.31459 0.716419 15.2759 -4.95978 7.83643 175.229 11.0215 83.7469 -63.6209 -12.7151 -4.06177 67.8807 -4.67694 -2.27619 23.6389 -1.67406 4.64748 0.355519 7.95344 -89.9749 10.9684 0.71937 -0.019929 -0.702356 0.717805 -0.0515829 -23.2393 0.692099 0.197202 -3.22668 0.692105 0.197207 88.1457 -31.6947 -109.694 37.7167 -14.1797 -5.08549 4.84721 -24.9092 -14.0686 -25.551 -0.828088 -7.04146 -88.4387 -56.2644 82.1784 -14.6937 16.0276 -18.4138 2.96287 -1.04401 -5.37646 -1.46893 -0.105699 -7.36261 0.396261 -0.570843 -1.22211 -5.35991 -0.389496 -0.111413 
35.1236 99.2349 -279.135 -170.942 -82.4543 -170.458 -177.988 0.284251 86.5748 -26.7991 3.70418 -0.739823 78.7134 6.67358 -0.778193 13.9632 -3.32734 6.06108 178.028 16.6561 90.4044 -48.148 -3.79823 -3.47222 68.9587 -5.47317 -0.91338 21.0712 -0.671888 2.90829 -0.0128682 8.04853 -90.3043 10.7765 -0.165939 -0.588691 -0.894656 -0.191695 -0.58083 -23.4283 0.0186445 -0.611357 -3.41569 0.0186413 -0.61136 88.7938 -32.069 -108.305 37.9012 -13.0368 -2.3937 4.35891 -23.1395 -14.8391 -24.1237 -0.722772 -7.15552 -88.4124 -52.3701 81.5394 -14.2712 14.8115 -26.8931 3.97376 -0.734648 -7.8771 -3.95097 -0.0170092 -10.0371 -0.513136 -0.291184 -5.24303 -5.5566 0.371473 1.58608 
34.7982 98.9933 -272.348 161.29 -83.0896 163.074 -177.001 -3.33694 88.7869 -26.0184 6.62934 -0.0195128 82.3111 7.65234 -2.26135 12.8833 -1.81449 4.39503 176.701 17.3955 92.4797 -21.8058 -8.03881 -1.51857 62.7974 -3.11497 -1.74348 24.1571 -1.00678 3.13713 -0.583376 8.07963 -90.3758 10.7106 -1.33486 -0.62479 -0.959755 -1.36107 -0.565433 -23.4975 -1.08537 -0.997102 -3.48488 -1.08538 -0.997108 88.6848 -33.4362 -107.984 38.1156 -10.7393 0.890134 3.33039 -24.0537 -17.4662 -24.6855 -0.922361 -6.29169 -89.1308 -50.3583 80.0998 -13.3177 12.9381 -32.4842 5.66002 1.30922 -12.1877 -1.74153 -0.124012 -10.5349 0.188906 -0.610093 -8.54387 -5.30275 0.533441 2.5202 
34.5803 97.4881 -263.992 156.606 -82.9487 159.049 -174.928 -11.6381 91.405 -20.692 9.9896 -0.918345 85.0452 9.52407 -1.376 16.9595 -4.12903 6.79017 175.463 17.76 95.0598 -8.09956 -6.1754 0.468011 63.8675 -2.66434 0.0285336 24.4693 -0.680202 2.39279 -0.736736 8.08286 -90.3953 10.7039 -1.64923 -0.63474 -0.966146 -1.67556 -0.561522 -23.5064 -1.38221 -1.10111 -3.49373 -1.38222 -1.10111 88.1403 -34.4763 -108.598 39.1533 -9.4742 3.73929 3.73711 -24.7215 -14.9168 -22.4487 -0.582695 -8.67523 -89.1305 -50.7488 80.1779 -12.6928 12.3436 -36.184 6.32485 2.55357 -13.5007 -0.161405 -0.190265 -9.53518 0.191583 -0.913029 -9.59234 -5.44064 0.383202 2.2948 
34.5137 95.7182 -254.228 150.287 -81.8749 153.527 -172.788 -18.5675 94.4675 -20.3656 8.41958 -0.549458 87.7349 9.88561 -6.39466 21.289 -4.14552 6.39849 176.212 18.6869 96.8749 -14.5066 -7.93624 0.50014 59.9733 -0.703529 -1.81755 22.2647 -0.978004 3.34264 -0.882958 8.0887 -90.4999 10.6902 -1.98859 -0.812157 -0.979441 -2.02241 -0.723829 -23.5216 -1.65258 -1.37235 -3.50894 -1.65257 -1.37236 88.4754 -35.4779 -107.609 39.5105 -8.97352 4.63687 5.56437 -26.272 -11.2047 -21.0866 -0.75055 -8.33301 -89.5762 -51.6732 79.7031 -12.7993 14.0093 -36.12 5.59671 4.01978 -11.6383 -0.152621 -0.156698 -7.97029 1.56127 -1.12431 -9.0835 -6.66473 0.207773 1.65619 
